<svg id="svg" xmlns="http://www.w3.org/2000/svg" xmlns:xlink="http://www.w3.org/1999/xlink" width="400" height="400" viewBox="0, 0, 400,400"><g id="svgg"><path id="path0" d="M194.141 28.209 C 183.397 29.752,174.178 36.591,166.867 48.438 C 129.687 108.685,3.183 320.188,1.687 324.602 C -5.511 345.845,8.615 368.727,30.859 371.856 C 38.309 372.904,361.691 372.904,369.141 371.856 C 391.385 368.727,405.512 345.845,398.313 324.602 C 396.818 320.191,272.060 111.614,233.127 48.438 C 223.351 32.573,210.429 25.868,194.141 28.209 M204.649 55.961 C 207.255 57.500,198.233 42.792,293.723 201.171 C 349.027 292.896,372.972 333.278,373.239 335.269 C 373.696 338.671,371.898 342.157,368.719 344.035 C 365.390 346.001,34.610 346.001,31.281 344.035 C 28.102 342.157,26.304 338.671,26.761 335.269 C 27.063 333.013,147.311 132.017,189.292 63.595 C 194.636 54.885,199.084 52.674,204.649 55.961 M191.406 136.400 C 181.285 140.777,181.097 142.225,183.681 196.083 C 184.124 205.316,184.743 221.750,185.057 232.604 C 185.777 257.453,186.806 259.371,199.423 259.374 C 211.335 259.377,214.289 255.887,214.633 241.406 C 214.760 236.035,215.376 219.512,216.002 204.688 C 218.583 143.498,218.632 145.219,214.164 140.331 C 209.661 135.406,198.259 133.436,191.406 136.400 M192.578 277.249 C 173.508 285.997,180.568 314.335,201.522 313.151 C 225.374 311.803,223.907 275.816,200.000 275.816 C 197.488 275.816,194.405 276.411,192.578 277.249 " stroke="none" fill="#ffffff" fill-rule="evenodd"></path></g></svg>