<svg id="svg" xmlns="http://www.w3.org/2000/svg" xmlns:xlink="http://www.w3.org/1999/xlink" width="400" height="400" viewBox="0, 0, 400,400"><g id="svgg"><path id="path0" d="M19.141 86.988 C 7.050 90.931,0.391 100.547,0.391 114.063 C 0.391 127.398,-7.033 118.985,93.606 219.711 C 194.757 320.949,186.517 313.672,200.000 313.672 C 213.499 313.672,205.205 321.005,306.712 219.317 C 407.174 118.676,399.609 127.247,399.609 114.063 C 399.609 96.925,389.161 86.328,372.266 86.328 C 358.574 86.328,366.426 79.540,277.930 167.883 L 200.000 245.677 122.070 167.883 C 34.570 80.534,41.462 86.579,28.906 86.180 C 24.976 86.055,20.990 86.385,19.141 86.988 " stroke="none" fill="#ffffff" fill-rule="evenodd"></path></g></svg>