<svg id="svg" xmlns="http://www.w3.org/2000/svg" xmlns:xlink="http://www.w3.org/1999/xlink" width="400" height="400" viewBox="0, 0, 400,400"><g id="svgg"><path id="path0" d="M180.078 0.509 C 57.151 13.726,-24.606 131.499,6.201 250.981 C 33.575 357.147,143.772 421.442,250.981 393.799 C 357.147 366.425,421.442 256.228,393.799 149.019 C 374.270 73.278,311.095 15.798,232.465 2.230 C 223.308 0.650,189.192 -0.471,180.078 0.509 M224.219 33.193 C 333.120 50.785,397.182 162.293,356.221 262.962 C 302.392 395.258,117.901 404.764,51.169 278.681 C -5.706 171.223,64.626 44.179,187.891 31.714 C 194.079 31.088,216.952 32.020,224.219 33.193 M196.484 92.901 C 192.227 93.968,189.084 96.094,186.911 99.378 L 184.766 102.619 184.555 153.849 L 184.344 205.078 186.117 208.594 C 187.855 212.039,241.666 253.886,253.516 261.007 C 264.379 267.535,277.579 260.188,277.598 247.604 C 277.610 239.610,277.160 239.161,244.805 214.859 L 215.662 192.971 215.448 147.795 L 215.234 102.619 213.085 99.372 C 209.746 94.327,202.330 91.436,196.484 92.901 " stroke="none" fill="#93E4C4" fill-rule="evenodd"></path></g></svg>