<svg id="svg" xmlns="http://www.w3.org/2000/svg" xmlns:xlink="http://www.w3.org/1999/xlink" width="400" height="400" viewBox="0, 0, 400,400"><g id="svgg"><path id="path0" d="M166.406 21.875 L 166.406 34.375 141.016 34.375 L 115.625 34.375 115.625 82.230 L 115.625 130.086 123.242 133.734 C 163.647 153.084,188.517 197.929,181.681 239.106 C 177.626 263.531,158.482 306.215,130.011 354.308 C 126.446 360.330,123.296 365.867,123.009 366.613 C 122.518 367.893,125.965 367.969,184.682 367.969 L 246.875 367.969 246.875 329.688 L 246.875 291.406 258.984 291.406 L 271.094 291.406 271.094 329.688 L 271.094 367.969 335.547 367.969 L 400.000 367.969 400.000 201.172 L 400.000 34.375 375.000 34.375 L 350.000 34.375 350.000 21.875 L 350.000 9.375 258.203 9.375 L 166.406 9.375 166.406 21.875 M243.750 103.516 L 243.750 115.625 220.313 115.625 L 196.875 115.625 196.875 103.516 L 196.875 91.406 220.313 91.406 L 243.750 91.406 243.750 103.516 M321.094 103.516 L 321.094 115.625 297.656 115.625 L 274.219 115.625 274.219 103.516 L 274.219 91.406 297.656 91.406 L 321.094 91.406 321.094 103.516 M243.750 153.516 L 243.750 165.625 220.313 165.625 L 196.875 165.625 196.875 153.516 L 196.875 141.406 220.313 141.406 L 243.750 141.406 243.750 153.516 M321.094 153.516 L 321.094 165.625 297.656 165.625 L 274.219 165.625 274.219 153.516 L 274.219 141.406 297.656 141.406 L 321.094 141.406 321.094 153.516 M69.577 148.494 C 30.029 153.341,-0.000 186.831,-0.000 226.090 C 0.000 245.186,10.613 272.777,35.251 317.736 C 49.360 343.482,77.796 390.625,79.216 390.625 C 80.300 390.625,107.253 346.247,119.311 324.609 C 145.920 276.863,158.594 244.983,158.594 225.799 C 158.594 179.904,115.889 142.818,69.577 148.494 M90.625 179.341 C 128.270 188.187,141.175 234.510,113.709 262.196 C 83.701 292.443,32.453 272.793,29.945 230.078 C 28.023 197.345,58.565 171.808,90.625 179.341 M243.750 202.734 L 243.750 214.844 220.313 214.844 L 196.875 214.844 196.875 202.734 L 196.875 190.625 220.313 190.625 L 243.750 190.625 243.750 202.734 M321.094 202.734 L 321.094 214.844 297.656 214.844 L 274.219 214.844 274.219 202.734 L 274.219 190.625 297.656 190.625 L 321.094 190.625 321.094 202.734 M69.558 204.064 C 57.175 208.818,50.775 223.605,55.563 236.401 C 63.274 257.010,91.967 258.281,101.731 238.447 C 111.950 217.690,91.366 195.693,69.558 204.064 M243.750 252.734 L 243.750 264.844 220.313 264.844 L 196.875 264.844 196.875 252.734 L 196.875 240.625 220.313 240.625 L 243.750 240.625 243.750 252.734 M321.094 252.734 L 321.094 264.844 297.656 264.844 L 274.219 264.844 274.219 252.734 L 274.219 240.625 297.656 240.625 L 321.094 240.625 321.094 252.734 " stroke="none" fill="#ffffff" fill-rule="evenodd"></path></g></svg>