<svg id="svg" xmlns="http://www.w3.org/2000/svg" xmlns:xlink="http://www.w3.org/1999/xlink" width="400" height="400" viewBox="0, 0, 400,400"><g id="svgg"><path id="path0" d="M41.853 38.728 C 40.748 39.832,40.625 51.136,40.625 151.489 L 40.625 263.023 199.361 263.530 C 286.666 263.809,358.272 263.863,358.486 263.650 C 358.699 263.436,359.033 213.215,359.228 152.048 L 359.583 40.833 357.917 39.167 L 356.250 37.500 199.665 37.500 C 58.357 37.500,42.961 37.620,41.853 38.728 M337.047 59.316 L 339.063 61.210 339.063 150.379 C 339.063 238.875,339.051 239.562,337.478 241.249 C 335.024 243.884,339.872 243.803,198.174 243.575 L 63.927 243.359 62.042 241.167 L 60.156 238.975 60.156 150.521 C 60.156 54.197,59.912 59.601,64.341 57.801 C 65.274 57.422,125.564 57.188,200.523 57.271 L 335.031 57.422 337.047 59.316 M72.656 150.391 L 72.656 231.250 200.000 231.250 L 327.344 231.250 327.344 150.391 L 327.344 69.531 200.000 69.531 L 72.656 69.531 72.656 150.391 M34.919 279.883 C 33.473 282.139,25.904 293.917,18.098 306.057 C 10.293 318.197,3.906 328.480,3.906 328.908 C 3.906 329.424,70.054 329.688,199.693 329.688 C 370.876 329.688,395.425 329.544,395.043 328.549 C 394.802 327.922,387.162 315.793,378.064 301.596 L 361.522 275.781 199.535 275.781 L 37.548 275.781 34.919 279.883 M202.734 306.295 L 235.547 306.358 241.523 313.530 L 247.500 320.703 223.303 320.910 C 209.995 321.023,188.431 321.023,175.384 320.910 L 151.662 320.703 158.058 313.033 C 164.290 305.557,164.523 305.373,167.188 305.798 C 168.691 306.037,184.687 306.261,202.734 306.295 M0.000 342.827 C 0.000 346.926,4.281 357.495,7.256 360.742 L 8.866 362.500 202.460 362.500 L 396.054 362.500 397.151 360.352 C 398.650 357.416,400.000 350.702,400.000 346.185 L 400.000 342.446 271.680 341.927 C 44.328 341.006,-0.000 341.153,0.000 342.827 " stroke="none" fill="#ffffff" fill-rule="evenodd"></path></g></svg>