<svg id="svg" xmlns="http://www.w3.org/2000/svg" xmlns:xlink="http://www.w3.org/1999/xlink" width="400" height="400" viewBox="0, 0, 400,400"><g id="svgg"><path id="path0" d="M40.103 56.995 C 33.570 58.563,27.160 64.430,24.845 70.960 C 22.913 76.410,23.397 292.779,25.345 294.204 C 27.628 295.873,372.372 295.873,374.655 294.204 C 376.144 293.115,376.172 291.081,376.172 183.071 L 376.172 73.047 373.984 68.591 C 371.652 63.842,368.946 61.134,363.763 58.361 L 360.547 56.641 201.563 56.521 C 114.121 56.455,41.464 56.668,40.103 56.995 M346.094 175.391 L 346.094 264.844 200.000 264.844 L 53.906 264.844 53.906 175.391 L 53.906 85.938 200.000 85.938 L 346.094 85.938 346.094 175.391 M193.704 116.174 C 189.307 119.874,189.063 121.326,189.063 143.725 L 189.063 164.063 168.725 164.063 C 142.659 164.063,139.063 165.436,139.063 175.391 C 139.063 185.345,142.659 186.719,168.725 186.719 L 189.063 186.719 189.063 207.056 C 189.063 233.123,190.436 236.719,200.391 236.719 C 210.345 236.719,211.719 233.123,211.719 207.056 L 211.719 186.719 232.056 186.719 C 258.123 186.719,261.719 185.345,261.719 175.391 C 261.719 165.436,258.123 164.063,232.056 164.063 L 211.719 164.063 211.719 143.725 C 211.719 121.326,211.474 119.874,207.078 116.174 C 203.488 113.154,197.293 113.154,193.704 116.174 M11.719 303.070 C 2.246 304.998,-2.894 315.594,0.822 325.535 C 1.996 328.675,13.868 340.522,17.578 342.255 C 22.439 344.527,377.509 344.542,382.422 342.271 C 386.031 340.602,397.994 328.613,399.191 325.464 C 402.050 317.943,399.095 308.254,392.850 304.679 L 389.453 302.734 201.953 302.624 C 98.828 302.564,13.223 302.764,11.719 303.070 M306.678 321.432 C 308.386 324.038,307.080 326.336,303.511 327.005 C 296.932 328.240,292.140 324.378,295.759 320.759 C 297.876 318.642,305.143 319.090,306.678 321.432 M329.334 321.432 C 331.042 324.038,329.736 326.336,326.168 327.005 C 321.181 327.941,317.188 326.155,317.188 322.990 C 317.188 319.116,326.993 317.858,329.334 321.432 M351.822 321.144 C 354.276 324.647,350.355 327.986,344.839 327.091 C 340.251 326.346,338.219 323.031,340.781 320.469 C 342.462 318.788,350.517 319.281,351.822 321.144 M374.785 321.644 C 377.549 325.822,368.004 329.377,363.672 325.782 C 362.250 324.601,362.143 321.764,363.470 320.436 C 365.188 318.718,373.431 319.598,374.785 321.644 " stroke="none" fill="#ffffff" fill-rule="evenodd"></path></g></svg>