<svg id="svg" xmlns="http://www.w3.org/2000/svg" xmlns:xlink="http://www.w3.org/1999/xlink" width="400" height="400" viewBox="0, 0, 400,400"><g id="svgg"><path id="path0" d="M45.114 57.875 C 34.787 60.326,26.230 68.299,22.709 78.751 C 21.108 83.504,21.094 84.456,21.094 190.600 L 21.094 297.656 200.011 297.656 L 378.928 297.656 378.722 189.258 L 378.516 80.859 376.043 75.641 C 372.602 68.378,368.173 63.854,361.063 60.340 L 355.159 57.422 201.603 57.300 C 113.989 57.231,46.787 57.477,45.114 57.875 M353.294 80.078 C 358.082 83.602,357.813 77.547,357.813 181.563 L 357.813 276.563 200.000 276.563 L 42.188 276.563 42.192 181.445 C 42.198 73.841,41.632 82.133,49.192 78.763 C 52.703 77.198,351.135 78.489,353.294 80.078 M0.143 318.295 L 0.391 331.122 2.763 334.495 C 5.487 338.366,9.125 341.046,13.189 342.175 C 17.093 343.259,382.907 343.259,386.811 342.175 C 390.875 341.046,394.513 338.366,397.237 334.495 L 399.609 331.122 399.857 318.295 L 400.105 305.469 200.000 305.469 L -0.105 305.469 0.143 318.295 M228.906 326.953 L 228.906 334.375 200.000 334.375 L 171.094 334.375 171.094 326.953 L 171.094 319.531 200.000 319.531 L 228.906 319.531 228.906 326.953 " stroke="none" fill="#ffffff" fill-rule="evenodd"></path></g></svg>