<svg id="svg" xmlns="http://www.w3.org/2000/svg" xmlns:xlink="http://www.w3.org/1999/xlink" width="400" height="400" viewBox="0, 0, 400,400"><g id="svgg"><path id="path0" d="M111.328 1.175 C 102.654 4.245,100.010 10.400,100.004 27.539 L 100.000 39.844 86.861 39.844 C 54.229 39.844,39.844 54.229,39.844 86.861 L 39.844 100.000 27.539 100.004 C 5.979 100.012,-0.856 105.378,0.178 121.484 C 1.053 135.109,8.020 139.945,27.539 140.477 L 39.844 140.812 39.844 160.250 L 39.844 179.688 27.833 179.688 C 7.273 179.687,-0.000 184.893,0.000 199.609 C 0.000 214.489,7.950 220.312,28.264 220.313 L 39.844 220.313 39.844 239.752 L 39.844 259.192 27.148 259.522 C 7.067 260.045,0.994 264.240,0.168 278.159 C -0.759 293.768,6.988 300.000,27.319 300.000 L 39.844 300.000 39.844 313.139 C 39.844 345.771,54.229 360.156,86.861 360.156 L 100.000 360.156 100.008 372.461 C 100.020 393.044,106.160 400.763,121.782 399.836 C 135.765 399.006,139.954 392.960,140.478 372.852 L 140.808 360.156 160.248 360.156 L 179.688 360.156 179.688 371.736 C 179.688 392.131,185.444 399.972,200.433 399.992 C 215.095 400.013,220.313 392.709,220.313 372.167 L 220.313 360.156 239.762 360.156 L 259.211 360.156 259.517 372.461 C 260.007 392.216,265.676 399.949,279.688 399.975 C 294.282 400.003,300.000 392.319,300.000 372.681 L 300.000 360.156 313.139 360.156 C 345.771 360.156,360.156 345.771,360.156 313.139 L 360.156 300.000 372.461 299.996 C 394.021 299.988,400.856 294.622,399.822 278.516 C 398.947 264.891,391.980 260.055,372.461 259.523 L 360.156 259.188 360.156 239.750 L 360.156 220.313 372.167 220.312 C 392.727 220.312,400.000 215.107,400.000 200.391 C 400.000 185.511,392.050 179.688,371.736 179.688 L 360.156 179.688 360.156 160.248 L 360.156 140.808 372.852 140.478 C 392.933 139.955,399.006 135.760,399.832 121.841 C 400.759 106.232,393.012 100.000,372.681 100.000 L 360.156 100.000 360.156 86.861 C 360.156 54.229,345.771 39.844,313.139 39.844 L 300.000 39.844 299.992 27.539 C 299.980 7.137,293.765 -0.815,278.604 0.169 C 264.879 1.059,260.056 7.979,259.523 27.539 L 259.188 39.844 239.750 39.844 L 220.313 39.844 220.313 28.264 C 220.313 7.869,214.556 0.028,199.567 0.008 C 184.905 -0.013,179.688 7.291,179.688 27.833 L 179.688 39.844 160.238 39.844 L 140.789 39.844 140.483 27.539 C 139.923 4.941,128.885 -5.040,111.328 1.175 M319.531 200.000 L 319.531 319.531 200.000 319.531 L 80.469 319.531 80.469 200.000 L 80.469 80.469 200.000 80.469 L 319.531 80.469 319.531 200.000 M119.531 200.000 L 119.531 280.469 200.000 280.469 L 280.469 280.469 280.469 200.000 L 280.469 119.531 200.000 119.531 L 119.531 119.531 119.531 200.000 " stroke="none" fill="#ffffff" fill-rule="evenodd"></path></g></svg>