<svg id="svg" xmlns="http://www.w3.org/2000/svg" xmlns:xlink="http://www.w3.org/1999/xlink" width="400" height="400" viewBox="0, 0, 400,400"><g id="svgg"><path id="path0" d="M45.825 0.885 C 42.014 3.100,42.188 -6.375,42.187 200.000 C 42.187 407.369,41.991 397.023,45.976 399.156 C 48.207 400.350,351.793 400.350,354.024 399.156 C 358.009 397.023,357.813 407.369,357.813 200.000 C 357.813 -7.369,358.009 2.977,354.024 0.844 C 351.805 -0.343,47.869 -0.303,45.825 0.885 M86.226 16.435 C 103.246 22.803,103.595 47.194,86.776 54.867 C 72.953 61.174,56.899 49.681,58.002 34.268 C 59.025 19.959,72.645 11.354,86.226 16.435 M328.225 16.037 C 339.345 19.826,345.227 32.880,340.630 43.566 C 331.945 63.754,302.359 59.044,300.961 37.251 C 299.983 22.014,313.926 11.165,328.225 16.037 M74.769 29.333 C 70.724 31.598,69.957 36.811,73.116 40.565 C 77.444 45.708,85.938 42.601,85.938 35.875 C 85.938 30.073,79.833 26.498,74.769 29.333 M318.248 28.900 C 315.765 29.902,314.063 32.791,314.063 36.005 C 314.063 42.606,322.609 45.645,326.884 40.565 C 332.121 34.341,325.828 25.841,318.248 28.900 M285.156 35.547 L 285.156 42.188 200.000 42.188 L 114.844 42.188 114.844 35.547 L 114.844 28.906 200.000 28.906 L 285.156 28.906 285.156 35.547 M285.156 64.453 L 285.156 71.094 200.000 71.094 L 114.844 71.094 114.844 64.453 L 114.844 57.813 200.000 57.813 L 285.156 57.813 285.156 64.453 M218.563 109.027 C 323.084 125.717,364.667 251.760,290.189 326.138 C 211.744 404.479,78.132 352.554,72.158 241.406 C 67.921 162.567,140.856 96.620,218.563 109.027 M186.008 121.912 C 91.838 133.736,51.815 249.471,118.750 316.406 C 188.021 385.676,305.496 342.640,314.069 244.852 C 320.345 173.257,257.510 112.934,186.008 121.912 M211.809 210.365 C 229.384 218.964,233.366 241.811,219.655 255.382 C 197.561 277.250,161.486 251.955,174.865 223.976 C 181.629 209.832,198.223 203.719,211.809 210.365 M194.141 222.162 C 184.064 226.863,182.418 240.761,191.149 247.421 C 197.586 252.330,209.282 249.826,213.047 242.733 C 219.263 231.022,206.025 216.618,194.141 222.162 M299.216 240.820 C 299.192 288.352,252.040 335.116,204.102 335.153 L 200.000 335.156 200.000 328.643 L 200.000 322.130 208.583 321.199 C 251.139 316.583,285.938 279.939,285.938 239.741 L 285.938 235.938 292.578 235.938 L 299.219 235.938 299.216 240.820 M87.109 345.324 C 103.600 352.641,103.031 377.277,86.226 383.565 C 72.765 388.601,59.138 380.113,58.004 365.986 C 56.727 350.085,72.541 338.859,87.109 345.324 M329.445 344.965 C 340.388 349.397,345.510 364.345,339.562 374.493 C 328.215 393.857,299.360 384.894,300.962 362.503 C 301.970 348.414,316.249 339.621,329.445 344.965 M73.116 359.435 C 69.854 363.311,70.748 368.504,75.061 370.735 C 80.271 373.429,85.938 369.953,85.938 364.064 C 85.938 357.397,77.419 354.321,73.116 359.435 M316.122 359.091 C 312.065 363.148,314.268 370.475,319.861 371.524 C 327.008 372.865,331.573 365.008,326.884 359.435 C 324.136 356.169,319.201 356.012,316.122 359.091 " stroke="none" fill="#ffffff" fill-rule="evenodd"></path></g></svg>