<svg id="svg" xmlns="http://www.w3.org/2000/svg" xmlns:xlink="http://www.w3.org/1999/xlink" width="400" height="400" viewBox="0, 0, 400,400"><g id="svgg"><path id="path0" d="M174.609 1.194 C 11.551 22.439,-58.250 220.976,55.854 338.970 C 161.863 448.592,347.652 404.122,391.657 258.594 C 433.672 119.643,318.034 -17.493,174.609 1.194 M206.055 73.532 C 208.117 74.530,210.312 76.449,211.575 78.357 L 213.672 81.525 213.887 137.580 L 214.102 193.634 248.071 220.799 C 275.958 243.100,282.320 248.540,283.598 251.182 C 288.711 261.742,278.908 273.682,267.846 270.368 C 264.572 269.387,192.555 212.465,189.214 208.218 C 185.897 204.002,185.845 202.883,186.092 140.958 L 186.328 81.526 188.413 78.376 C 192.370 72.398,199.607 70.411,206.055 73.532 " stroke="none" fill="#000000" fill-rule="evenodd"></path></g></svg>