<svg id="svg" xmlns="http://www.w3.org/2000/svg" xmlns:xlink="http://www.w3.org/1999/xlink" width="400" height="400" viewBox="0, 0, 400,400"><g id="svgg"><path id="path0" d="M60.570 84.058 C 45.879 89.436,46.633 111.794,61.658 116.296 C 65.914 117.571,334.086 117.571,338.342 116.296 C 353.544 111.741,354.105 89.292,339.149 84.015 C 334.137 82.247,65.404 82.288,60.570 84.058 M60.570 184.058 C 45.879 189.436,46.633 211.794,61.658 216.296 C 65.914 217.571,334.086 217.571,338.342 216.296 C 353.544 211.741,354.105 189.292,339.149 184.015 C 334.137 182.247,65.404 182.288,60.570 184.058 M60.570 284.058 C 45.879 289.436,46.633 311.794,61.658 316.296 C 65.914 317.571,334.086 317.571,338.342 316.296 C 353.544 311.741,354.105 289.292,339.149 284.015 C 334.137 282.247,65.404 282.288,60.570 284.058 " stroke="none" fill="#ffffff" fill-rule="evenodd"></path></g></svg>