<svg id="svg" xmlns="http://www.w3.org/2000/svg" xmlns:xlink="http://www.w3.org/1999/xlink" width="400" height="400" viewBox="0, 0, 400,400"><g id="svgg"><path id="path0" d="M190.089 42.031 C 187.861 42.826,184.697 44.372,183.058 45.468 C 177.520 49.171,1.041 196.634,0.518 197.996 C -1.497 203.247,-0.536 205.203,10.424 218.177 C 19.083 228.427,20.123 229.052,26.281 227.719 C 27.201 227.520,66.558 195.186,113.743 155.866 C 160.927 116.546,199.743 84.375,199.999 84.375 C 200.256 84.375,239.237 116.683,286.623 156.170 C 352.169 210.790,373.372 228.053,375.253 228.329 C 379.632 228.971,381.697 227.504,389.637 218.105 C 405.386 199.463,406.980 203.157,370.021 172.656 L 343.041 150.391 343.005 98.182 L 342.969 45.974 340.685 43.690 L 338.401 41.406 311.361 41.406 C 275.474 41.406,278.906 38.091,278.906 72.755 L 278.906 96.839 247.963 70.994 C 226.635 53.181,215.650 44.519,212.611 43.120 C 206.689 40.393,196.118 39.882,190.089 42.031 M128.329 163.494 L 57.048 222.266 57.040 284.795 L 57.031 347.325 58.789 350.801 C 59.817 352.832,61.954 355.254,63.934 356.630 L 67.321 358.984 118.036 359.196 L 168.750 359.408 168.750 311.735 L 168.750 264.063 200.000 264.063 L 231.250 264.063 231.250 311.735 L 231.250 359.408 281.964 359.196 L 332.679 358.984 336.059 356.608 C 337.919 355.301,340.228 352.840,341.191 351.139 L 342.943 348.047 342.948 285.156 L 342.953 222.266 271.856 163.672 C 232.752 131.445,200.500 104.998,200.184 104.900 C 199.868 104.802,167.533 131.170,128.329 163.494 " stroke="none" fill="#ffffff" fill-rule="evenodd"></path></g></svg>