<svg id="svg" xmlns="http://www.w3.org/2000/svg" xmlns:xlink="http://www.w3.org/1999/xlink" width="400" height="400" viewBox="0, 0, 400,400"><g id="svgg"><path id="path0" d="M183.203 12.992 C 98.097 25.624,43.637 106.795,68.501 183.952 C 81.142 223.180,112.776 278.520,159.177 342.578 C 198.827 397.317,199.125 397.452,220.132 370.279 C 274.062 300.517,316.811 229.202,331.100 185.156 C 351.272 122.974,320.350 54.431,258.984 25.299 C 237.958 15.318,204.329 9.856,183.203 12.992 M216.498 90.942 C 247.405 101.691,259.328 140.726,239.659 166.774 C 210.240 205.733,149.150 184.229,150.948 135.547 C 152.184 102.114,184.801 79.919,216.498 90.942 " stroke="none" fill="#ffffff" fill-rule="evenodd"></path></g></svg>