<svg id="svg" xmlns="http://www.w3.org/2000/svg" xmlns:xlink="http://www.w3.org/1999/xlink" width="400" height="400" viewBox="0, 0, 400,400"><g id="svgg"><path id="path0" d="M79.875 1.291 C 76.416 2.996,72.914 7.148,71.922 10.721 C 71.370 12.707,71.101 45.650,71.098 111.515 L 71.094 209.357 169.788 209.561 L 268.481 209.766 271.351 211.954 C 277.227 216.437,276.928 213.642,277.172 266.236 C 277.404 316.155,277.315 317.589,273.715 321.868 C 269.488 326.890,276.787 326.562,169.179 326.562 L 71.094 326.563 71.094 343.999 C 71.094 364.804,71.714 367.934,76.679 372.184 C 82.015 376.752,77.332 376.607,212.109 376.380 L 336.328 376.172 339.638 374.276 C 341.458 373.234,343.919 370.979,345.106 369.265 L 347.266 366.149 347.467 230.758 L 347.669 95.367 308.014 95.144 L 268.359 94.922 264.063 92.501 C 259.449 89.901,254.816 84.554,253.077 79.823 C 252.260 77.598,251.963 68.303,251.758 38.477 L 251.494 -0.000 166.958 0.018 C 90.908 0.034,82.166 0.162,79.875 1.291 M259.375 41.134 L 259.375 77.038 261.678 80.670 C 266.333 88.009,265.419 87.857,306.520 88.116 C 326.220 88.240,342.216 88.060,342.067 87.717 C 341.919 87.374,323.252 68.674,300.586 46.162 L 259.375 5.230 259.375 41.134 M205.815 22.049 C 207.642 24.657,207.632 64.132,205.804 65.960 C 203.690 68.073,106.632 67.799,105.496 65.676 C 104.051 62.976,104.430 23.025,105.915 21.540 C 107.005 20.450,112.614 20.313,155.871 20.313 L 204.599 20.313 205.815 22.049 M112.240 27.865 C 111.953 28.151,111.719 35.534,111.719 44.271 L 111.719 60.156 155.469 60.156 L 199.219 60.156 199.219 43.750 L 199.219 27.344 155.990 27.344 C 132.214 27.344,112.526 27.578,112.240 27.865 M355.292 241.440 L 355.078 365.234 353.282 369.141 C 351.016 374.068,346.818 378.447,341.797 381.122 L 337.891 383.203 224.023 383.411 L 110.156 383.619 110.156 385.975 C 110.156 388.963,112.069 393.578,114.295 395.962 C 118.294 400.245,110.641 400.000,240.227 400.000 C 374.318 400.000,363.821 400.432,367.783 394.744 C 371.165 389.890,371.094 392.767,371.094 260.220 L 371.094 133.174 363.300 125.409 L 355.506 117.645 355.292 241.440 M308.438 130.625 C 309.643 131.830,309.643 134.576,308.438 135.781 C 306.573 137.645,111.186 137.080,110.184 135.208 C 109.085 133.155,109.163 132.355,110.603 130.915 C 112.224 129.294,306.821 129.008,308.438 130.625 M308.438 168.906 C 309.643 170.111,309.643 172.857,308.438 174.062 C 307.718 174.782,284.717 175.000,209.665 175.000 C 105.030 175.000,109.375 175.152,109.375 171.484 C 109.375 167.816,105.030 167.969,209.665 167.969 C 284.717 167.969,307.718 168.187,308.438 168.906 M36.328 189.799 C 31.517 191.762,28.918 197.046,28.911 204.883 L 28.906 209.375 46.484 209.375 L 64.063 209.375 64.063 199.219 L 64.063 189.063 50.977 189.112 C 43.779 189.139,37.188 189.448,36.328 189.799 M29.085 266.866 L 29.297 316.545 31.141 318.038 C 32.939 319.493,35.944 319.531,148.966 319.531 C 266.074 319.531,267.176 319.507,268.933 316.875 C 270.400 314.679,269.599 219.835,268.103 218.480 C 266.786 217.289,257.315 217.188,147.773 217.188 L 28.872 217.188 29.085 266.866 M69.878 238.455 C 70.916 239.938,71.094 243.812,71.094 265.018 L 71.094 289.844 84.509 289.844 C 98.736 289.844,100.781 290.344,100.781 293.827 C 100.781 297.983,68.754 300.004,64.844 296.094 C 62.634 293.884,62.386 240.565,64.574 238.147 C 66.314 236.226,68.401 236.347,69.878 238.455 M144.688 238.378 C 174.447 244.693,176.435 288.064,147.375 296.995 C 131.359 301.917,114.835 291.343,111.705 274.170 C 107.816 252.829,124.985 234.198,144.688 238.378 M216.685 240.650 C 227.603 244.735,235.772 255.360,230.012 257.985 C 228.110 258.851,227.766 258.645,224.061 254.421 C 206.863 234.814,180.016 252.522,187.669 278.425 C 192.873 296.039,223.566 295.368,227.039 277.564 L 227.529 275.050 217.884 274.829 L 208.238 274.609 207.500 272.508 C 206.060 268.404,207.369 267.969,221.162 267.969 C 236.475 267.969,238.566 270.538,232.855 282.334 C 222.510 303.703,193.901 304.791,182.758 284.239 C 179.273 277.813,178.718 261.926,181.748 255.373 C 187.695 242.512,203.669 235.780,216.685 240.650 M129.819 247.346 C 114.467 254.996,115.099 282.013,130.796 289.143 C 145.405 295.778,160.603 284.948,160.511 267.969 C 160.415 250.178,144.966 239.798,129.819 247.346 " stroke="none" fill="#000000" fill-rule="evenodd"></path></g></svg>