<svg id="svg" xmlns="http://www.w3.org/2000/svg" xmlns:xlink="http://www.w3.org/1999/xlink" width="400" height="400" viewBox="0, 0, 400,400"><g id="svgg"><path id="path0" d="M8.907 1.870 C 5.000 3.690,2.810 6.030,0.938 10.388 C -0.937 14.756,-0.361 354.041,1.528 357.745 C 3.201 361.025,6.986 364.562,10.112 365.768 C 14.443 367.438,179.477 400.000,183.613 400.000 C 195.530 400.000,200.781 392.202,200.781 374.503 L 200.781 367.188 243.073 367.188 C 293.206 367.187,293.527 367.132,298.655 357.542 L 300.391 354.297 300.391 300.000 L 300.391 245.703 298.679 242.504 C 292.398 230.767,276.762 229.707,269.173 240.503 L 266.797 243.883 266.583 288.348 L 266.369 332.813 233.575 332.813 L 200.781 332.813 200.781 200.497 C 200.781 60.828,200.813 62.068,197.054 56.678 C 193.852 52.088,192.575 51.565,162.493 42.524 C 147.243 37.941,134.619 34.057,134.440 33.893 C 134.261 33.728,163.880 33.594,200.260 33.594 L 266.406 33.594 266.423 77.148 C 266.439 117.876,266.534 120.906,267.887 123.828 C 274.897 138.968,296.974 135.868,300.034 119.314 C 300.570 116.417,300.774 97.042,300.623 63.493 C 300.369 7.228,300.603 10.085,295.807 4.807 C 291.065 -0.412,303.496 -0.001,150.617 0.008 L 12.891 0.015 8.907 1.870 M326.172 117.887 C 320.085 120.706,316.392 126.571,316.423 133.373 C 316.453 139.718,318.718 143.199,330.652 155.236 L 341.693 166.372 292.788 166.584 L 243.884 166.797 240.503 169.173 C 229.885 176.637,230.830 192.643,242.232 198.460 C 245.140 199.944,247.031 200.000,293.905 200.000 L 342.559 200.000 330.684 211.914 C 318.049 224.591,316.406 227.065,316.406 233.415 C 316.406 245.080,327.935 252.940,339.571 249.208 C 343.460 247.960,396.048 195.951,398.462 190.965 C 400.344 187.078,400.498 180.048,398.791 175.963 C 396.968 171.599,346.148 120.870,341.058 118.332 C 336.351 115.987,330.646 115.816,326.172 117.887 " stroke="none" fill="#ffffff" fill-rule="evenodd"></path></g></svg>