<svg id="svg" xmlns="http://www.w3.org/2000/svg" xmlns:xlink="http://www.w3.org/1999/xlink" width="400" height="400" viewBox="0, 0, 400,400"><g id="svgg"><path id="path0" d="M156.758 14.024 C 88.807 28.766,63.829 113.070,112.879 162.121 C 161.918 211.159,247.105 185.848,260.903 118.138 C 273.571 55.973,218.262 0.680,156.758 14.024 M318.157 126.558 C 312.689 129.892,312.506 130.783,312.503 154.102 L 312.500 175.000 291.602 175.003 C 265.437 175.007,262.506 176.266,262.506 187.500 C 262.506 198.734,265.437 199.993,291.602 199.997 L 312.500 200.000 312.503 220.898 C 312.507 247.063,313.766 249.994,325.000 249.994 C 336.234 249.994,337.493 247.063,337.497 220.898 L 337.500 200.000 358.398 199.997 C 384.563 199.993,387.494 198.734,387.494 187.500 C 387.494 176.266,384.563 175.007,358.398 175.003 L 337.500 175.000 337.497 154.102 C 337.494 130.783,337.311 129.892,331.843 126.558 C 328.384 124.449,321.616 124.449,318.157 126.558 M154.688 213.349 C 80.725 222.829,22.516 281.339,13.321 355.448 C 11.060 373.675,12.454 382.464,18.157 385.942 C 22.169 388.388,327.831 388.388,331.843 385.942 C 337.546 382.464,338.940 373.675,336.679 355.448 C 325.598 266.137,243.424 201.976,154.688 213.349 " stroke="none" fill="#ffffff" fill-rule="evenodd"></path></g></svg>