<svg id="svg" xmlns="http://www.w3.org/2000/svg" xmlns:xlink="http://www.w3.org/1999/xlink" width="400" height="400" viewBox="0, 0, 400,400"><g id="svgg"><path id="path0" d="M192.188 1.527 C 184.807 5.462,182.813 10.302,182.813 24.282 L 182.813 34.304 179.883 34.799 C 136.042 42.196,99.409 75.443,87.073 119.028 C 83.756 130.748,83.457 134.619,82.842 173.828 C 82.256 211.121,82.189 212.321,80.253 220.313 C 74.394 244.489,62.839 264.068,45.014 280.021 C 27.113 296.042,29.565 321.002,50.000 330.775 L 55.078 333.203 200.000 333.203 L 344.922 333.203 350.000 330.775 C 364.990 323.606,371.129 306.476,364.063 291.536 C 362.305 287.818,359.584 284.555,351.760 276.780 C 334.485 259.614,325.378 243.550,319.747 220.313 C 317.811 212.321,317.744 211.121,317.158 173.828 C 316.543 134.619,316.244 130.748,312.927 119.028 C 300.581 75.409,264.219 42.412,220.117 34.809 L 217.188 34.304 217.188 24.469 C 217.188 10.513,215.021 5.240,207.768 1.540 C 203.771 -0.500,196.000 -0.506,192.188 1.527 M138.281 350.308 C 138.281 351.651,141.975 362.103,143.556 365.234 C 169.085 415.794,243.444 409.883,260.067 355.972 C 260.976 353.027,261.719 350.478,261.719 350.308 C 261.719 350.139,233.945 350.000,200.000 350.000 C 166.055 350.000,138.281 350.139,138.281 350.308 " stroke="none" fill="#ffffff" fill-rule="evenodd"></path></g></svg>