<svg id="svg" xmlns="http://www.w3.org/2000/svg" xmlns:xlink="http://www.w3.org/1999/xlink" width="400" height="400" viewBox="0, 0, 400,400"><g id="svgg"><path id="path0" d="M303.906 1.998 C 300.560 3.542,296.541 7.039,285.739 17.805 L 271.869 31.630 319.721 79.487 C 346.040 105.808,367.930 127.344,368.365 127.344 C 370.419 127.344,396.057 100.310,398.002 96.094 C 400.817 89.992,400.818 81.105,398.004 75.000 C 394.972 68.423,332.216 5.562,325.391 2.265 C 318.947 -0.847,310.305 -0.954,303.906 1.998 M133.678 169.838 L 24.780 278.738 12.401 329.018 C -2.976 391.474,-3.060 393.520,9.556 398.791 C 15.706 401.360,13.406 401.802,82.327 384.810 C 102.470 379.844,119.345 375.781,119.828 375.781 C 120.913 375.781,339.063 157.722,339.063 156.637 C 339.063 155.616,244.377 60.938,243.356 60.938 C 242.927 60.938,193.572 109.943,133.678 169.838 M64.243 359.457 C 63.531 360.107,33.468 367.323,33.082 366.936 C 32.824 366.678,39.366 338.592,40.292 335.981 C 40.562 335.221,44.638 338.792,52.753 346.894 C 59.387 353.517,64.557 359.170,64.243 359.457 " stroke="none" fill="#000000" fill-rule="evenodd"></path></g></svg>