<svg id="svg" xmlns="http://www.w3.org/2000/svg" xmlns:xlink="http://www.w3.org/1999/xlink" width="400" height="400" viewBox="0, 0, 400,400"><g id="svgg"><path id="path0" d="M284.375 6.005 C 281.820 6.905,6.303 283.138,5.835 285.269 C 5.115 288.546,6.882 291.008,17.387 301.367 C 28.650 312.473,30.116 313.015,36.719 308.511 C 48.992 300.140,61.946 314.553,53.154 326.797 C 48.813 332.841,48.778 332.786,71.289 355.196 C 92.035 375.849,93.426 376.997,96.752 376.195 C 99.739 375.475,375.561 99.658,376.198 96.754 C 376.945 93.356,375.883 92.068,355.196 71.289 C 332.786 48.778,332.841 48.813,326.797 53.154 C 315.276 61.427,300.341 49.609,307.741 38.074 C 313.115 29.700,312.895 29.018,300.937 16.938 C 290.196 6.087,288.089 4.696,284.375 6.005 M293.559 81.445 C 315.974 103.740,318.439 106.624,317.672 109.654 C 316.835 112.964,284.180 144.531,281.594 144.531 C 278.081 144.531,232.813 99.193,232.813 95.675 C 232.813 92.228,265.676 59.375,269.124 59.375 C 271.020 59.375,274.817 62.804,293.559 81.445 M257.218 84.578 L 246.097 95.719 263.877 113.487 L 281.657 131.254 292.969 119.922 L 304.280 108.590 286.717 91.014 C 277.057 81.347,268.970 73.438,268.746 73.438 C 268.522 73.438,263.335 78.451,257.218 84.578 M244.928 245.306 L 113.686 376.550 122.231 385.122 C 134.550 397.479,134.279 397.505,149.171 382.512 L 158.889 372.729 154.759 368.362 C 146.470 359.598,154.005 352.603,162.787 360.908 L 166.886 364.785 174.068 357.573 C 182.691 348.915,182.599 349.908,175.391 343.170 C 168.832 337.040,167.975 334.547,171.339 331.386 C 174.479 328.437,176.504 329.149,183.522 335.668 L 189.959 341.649 196.933 334.708 C 205.082 326.597,204.865 327.359,200.391 322.575 C 192.254 313.877,200.139 306.907,208.642 315.282 L 212.525 319.106 220.118 311.513 L 227.711 303.920 221.570 297.743 C 215.011 291.144,214.108 288.909,216.802 285.932 C 220.060 282.332,222.201 283.058,229.807 290.338 C 236.213 296.470,235.034 296.646,243.322 288.319 L 250.284 281.325 246.626 277.415 C 238.596 268.830,245.689 260.768,253.906 269.141 C 258.346 273.664,257.769 273.837,266.177 265.464 L 273.400 258.271 267.169 251.887 C 260.529 245.085,259.955 243.648,262.557 240.340 C 265.482 236.621,268.059 237.435,275.118 244.303 L 281.306 250.325 288.895 242.724 L 296.484 235.124 292.771 231.554 C 288.448 227.399,287.578 225.018,289.377 222.272 C 291.900 218.421,296.354 219.133,301.123 224.149 C 304.253 227.442,304.223 227.454,311.930 219.711 C 320.109 211.494,320.010 212.903,312.891 206.033 C 306.158 199.536,305.303 196.786,309.090 193.807 C 312.176 191.379,313.748 191.789,318.613 196.290 C 321.051 198.546,324.024 201.254,325.217 202.306 L 327.388 204.220 334.397 197.244 C 342.562 189.116,342.422 189.603,337.891 185.156 C 329.514 176.935,337.581 169.847,346.170 177.882 L 350.086 181.544 357.660 173.938 L 365.234 166.332 359.291 160.695 C 352.596 154.346,351.599 152.424,353.496 149.529 C 356.536 144.890,359.101 145.452,366.660 152.418 C 373.911 159.099,372.060 159.608,383.978 147.663 C 397.492 134.119,397.461 134.608,385.542 122.652 C 380.833 117.928,376.798 114.063,376.575 114.063 C 376.352 114.063,317.111 173.122,244.928 245.306 M236.900 140.444 C 256.898 160.443,260.156 164.024,260.156 166.010 C 260.156 169.467,227.279 202.344,223.823 202.344 C 220.340 202.344,175.000 156.991,175.000 153.508 C 175.000 150.016,207.817 117.188,211.307 117.188 C 213.327 117.188,216.783 120.327,236.900 140.444 M199.798 141.998 L 188.284 153.532 205.672 170.906 C 215.235 180.463,223.413 188.281,223.845 188.281 C 224.865 188.281,246.094 167.020,246.094 165.999 C 246.094 165.571,238.268 157.401,228.703 147.843 L 211.312 130.465 199.798 141.998 M179.119 198.272 C 199.007 218.201,202.344 221.874,202.344 223.838 C 202.344 227.281,169.454 260.156,166.010 260.156 C 162.528 260.156,117.188 214.804,117.188 211.320 C 117.188 207.802,150.007 175.000,153.526 175.000 C 155.590 175.000,158.879 177.991,179.119 198.272 M141.986 199.811 L 130.472 211.344 147.859 228.719 C 157.423 238.275,165.601 246.094,166.032 246.094 C 167.052 246.094,188.281 224.833,188.281 223.812 C 188.281 223.384,180.455 215.214,170.890 205.656 L 153.499 188.278 141.986 199.811 M121.289 256.152 C 141.386 276.156,144.531 279.602,144.531 281.616 C 144.531 284.751,111.702 317.969,108.604 317.969 C 105.782 317.969,59.375 271.581,59.375 268.760 C 59.375 266.763,91.755 233.479,94.531 232.623 C 96.785 231.927,98.213 233.183,121.289 256.152 M84.373 257.424 L 73.059 268.758 90.826 286.525 L 108.593 304.291 119.923 292.961 L 131.253 281.631 113.470 263.860 L 95.687 246.090 84.373 257.424 " stroke="none" fill="#ffffff" fill-rule="evenodd"></path></g></svg>