<svg id="svg" xmlns="http://www.w3.org/2000/svg" xmlns:xlink="http://www.w3.org/1999/xlink" width="400" height="400" viewBox="0, 0, 400,400"><g id="svgg"><path id="path0" d="M186.706 1.469 C 165.097 7.304,144.529 27.476,129.257 57.813 C 126.367 63.553,117.939 83.806,118.289 84.168 C 120.254 86.203,161.377 91.740,181.445 92.671 L 192.969 93.206 192.969 46.603 C 192.969 20.971,192.705 0.021,192.383 0.047 C 192.061 0.073,189.506 0.713,186.706 1.469 M207.031 46.588 L 207.031 93.206 218.555 92.671 C 238.623 91.740,279.746 86.203,281.711 84.168 C 281.808 84.067,280.044 79.414,277.790 73.828 C 260.778 31.673,237.360 6.624,209.180 0.442 L 207.031 -0.030 207.031 46.588 M141.016 8.504 C 112.021 17.431,84.066 33.680,63.127 53.779 C 58.915 57.821,55.469 61.379,55.469 61.685 C 55.469 63.911,98.246 80.470,103.990 80.468 C 104.653 80.468,105.946 77.947,107.296 74.023 C 114.399 53.378,128.708 29.951,144.515 13.086 C 151.749 5.367,151.645 5.231,141.016 8.504 M253.960 11.418 C 271.769 30.087,285.716 53.465,294.768 79.822 C 295.694 82.518,344.531 64.778,344.531 61.746 C 344.531 59.539,323.456 41.469,311.746 33.635 C 294.010 21.770,266.170 9.185,251.953 6.606 L 248.828 6.039 253.960 11.418 M39.693 79.938 C 16.122 111.862,2.496 148.159,0.301 184.874 L -0.229 193.750 42.777 193.750 L 85.783 193.750 86.266 184.570 C 87.920 153.120,91.455 129.114,98.340 102.561 L 100.613 93.793 93.861 91.765 C 80.004 87.603,64.227 81.344,51.494 74.958 L 45.565 71.985 39.693 79.938 M350.391 74.030 C 338.690 80.092,319.862 87.637,306.139 91.763 L 299.387 93.793 301.660 102.561 C 308.545 129.114,312.080 153.120,313.734 184.570 L 314.217 193.750 357.223 193.750 L 400.229 193.750 399.699 184.874 C 397.394 146.333,378.458 98.989,354.763 72.526 C 354.507 72.240,352.539 72.917,350.391 74.030 M111.842 104.102 C 104.833 131.061,101.105 155.532,100.236 180.273 L 99.764 193.750 146.366 193.750 L 192.969 193.750 192.969 150.000 L 192.969 106.250 184.961 106.247 C 170.724 106.243,141.661 102.909,123.937 99.248 C 112.963 96.981,113.779 96.653,111.842 104.102 M275.781 99.255 C 259.809 102.718,229.184 106.244,215.039 106.248 L 207.031 106.250 207.031 150.000 L 207.031 193.750 253.634 193.750 L 300.236 193.750 299.764 180.273 C 298.895 155.532,295.167 131.061,288.158 104.102 C 286.215 96.628,286.815 96.863,275.781 99.255 M0.312 215.430 C 2.395 247.680,13.532 280.929,31.649 308.984 C 35.890 315.552,45.216 328.125,45.847 328.125 C 46.002 328.125,48.845 326.762,52.166 325.097 C 63.022 319.652,74.974 314.758,87.006 310.830 C 93.508 308.707,99.234 306.832,99.730 306.663 C 100.360 306.449,99.947 303.813,98.357 297.905 C 91.833 273.657,87.976 247.569,86.280 216.211 L 85.783 207.031 42.777 207.031 L -0.230 207.031 0.312 215.430 M100.244 220.508 C 101.113 244.556,109.978 298.940,113.688 302.990 C 113.817 303.130,119.315 302.179,125.907 300.876 C 145.092 297.083,160.824 295.198,182.617 294.080 L 192.969 293.549 192.969 250.290 L 192.969 207.031 146.363 207.031 L 99.757 207.031 100.244 220.508 M207.031 250.290 L 207.031 293.549 217.383 294.080 C 239.176 295.198,254.908 297.083,274.093 300.876 C 280.685 302.179,286.183 303.130,286.312 302.990 C 290.022 298.940,298.887 244.556,299.756 220.508 L 300.243 207.031 253.637 207.031 L 207.031 207.031 207.031 250.290 M313.720 216.211 C 312.024 247.569,308.167 273.657,301.643 297.905 C 300.053 303.813,299.640 306.449,300.270 306.663 C 300.766 306.832,306.492 308.707,312.994 310.830 C 325.026 314.758,336.978 319.652,347.834 325.097 C 351.155 326.762,353.998 328.125,354.153 328.125 C 354.784 328.125,364.110 315.552,368.351 308.984 C 386.430 280.988,397.726 247.290,399.712 215.430 L 400.235 207.031 357.226 207.031 L 314.217 207.031 313.720 216.211 M182.813 307.546 C 164.423 308.320,121.008 313.996,118.173 315.996 C 117.660 316.358,125.764 335.186,130.143 343.807 C 146.077 375.180,168.406 396.114,189.648 399.593 L 192.969 400.137 192.969 353.584 L 192.969 307.031 190.430 307.182 C 189.033 307.265,185.605 307.428,182.813 307.546 M207.031 353.592 L 207.031 400.137 210.352 399.593 C 231.594 396.114,253.923 375.180,269.857 343.807 C 274.258 335.144,282.330 316.377,281.827 315.981 C 281.340 315.599,258.790 311.638,251.172 310.597 C 241.537 309.280,227.989 308.093,215.430 307.466 L 207.031 307.046 207.031 353.592 M91.406 323.371 C 74.920 328.802,55.469 337.258,55.469 338.995 C 55.469 340.030,66.544 350.218,75.006 356.966 C 94.462 372.484,118.716 385.177,142.300 392.183 C 152.210 395.127,152.133 395.314,144.434 387.007 C 128.362 369.665,114.290 346.611,107.419 326.367 C 104.680 318.298,106.036 318.552,91.406 323.371 M294.662 320.898 C 294.273 321.650,293.514 323.672,292.975 325.391 C 287.144 343.972,272.432 368.755,257.583 385.009 C 254.957 387.883,251.913 391.228,250.819 392.442 L 248.828 394.651 251.172 394.105 C 268.135 390.160,293.965 378.500,311.328 366.949 C 323.082 359.130,344.531 341.072,344.531 338.995 C 344.531 337.187,321.165 327.240,305.413 322.342 C 294.865 319.063,295.561 319.156,294.662 320.898 " stroke="none" fill="#ffffff" fill-rule="evenodd"></path></g></svg>