<svg id="svg" xmlns="http://www.w3.org/2000/svg" xmlns:xlink="http://www.w3.org/1999/xlink" width="400" height="400" viewBox="0, 0, 400,400"><g id="svgg"><path id="path0" d="M59.375 1.483 C 44.480 6.332,34.904 15.614,30.137 29.825 L 28.125 35.822 28.125 200.000 L 28.125 364.178 30.093 370.040 C 33.732 380.880,41.186 389.838,50.706 394.813 C 61.424 400.413,49.512 400.000,200.199 400.000 L 336.053 400.000 341.915 398.032 C 355.571 393.448,365.197 383.839,370.075 369.922 L 372.266 363.672 372.266 226.563 C 372.266 114.652,372.076 89.004,371.233 87.007 C 370.188 84.532,287.509 2.882,284.168 1.026 C 280.959 -0.757,64.907 -0.318,59.375 1.483 M266.559 53.711 L 266.797 83.984 268.956 88.380 C 271.503 93.564,277.476 99.426,282.643 101.813 C 286.204 103.458,287.376 103.523,317.399 103.745 L 348.469 103.974 348.258 232.260 C 348.065 349.617,347.937 360.789,346.756 363.390 C 344.853 367.579,340.247 372.318,336.083 374.368 L 332.422 376.172 200.000 376.172 L 67.578 376.172 63.917 374.368 C 59.753 372.318,55.147 367.579,53.244 363.390 C 51.275 359.054,51.254 40.990,53.223 36.662 C 56.123 30.286,62.276 25.303,68.557 24.246 C 70.597 23.902,115.928 23.580,169.294 23.529 L 266.322 23.438 266.559 53.711 M321.081 70.648 L 330.053 79.688 311.276 79.688 C 297.714 79.688,292.240 79.427,291.563 78.750 C 290.887 78.074,290.625 72.706,290.625 59.520 L 290.625 41.227 301.367 51.418 C 307.275 57.023,316.147 65.676,321.081 70.648 M109.525 187.519 C 106.775 189.196,103.941 194.341,103.941 197.656 C 103.941 200.972,106.775 206.117,109.525 207.793 C 113.677 210.325,283.912 210.271,288.013 207.737 C 295.066 203.378,295.066 191.934,288.013 187.575 C 283.912 185.041,113.677 184.987,109.525 187.519 M109.525 234.394 C 106.775 236.071,103.941 241.216,103.941 244.531 C 103.941 247.847,106.775 252.992,109.525 254.668 C 113.492 257.087,253.430 257.156,257.330 254.741 C 264.616 250.229,264.616 238.833,257.330 234.321 C 253.430 231.906,113.492 231.975,109.525 234.394 M109.525 281.269 C 106.775 282.946,103.941 288.091,103.941 291.406 C 103.941 294.722,106.775 299.867,109.525 301.543 C 112.072 303.096,113.264 303.119,192.022 303.122 L 271.936 303.125 275.226 300.056 C 280.228 295.389,280.228 287.423,275.226 282.756 L 271.936 279.688 192.022 279.690 C 113.264 279.693,112.072 279.716,109.525 281.269 " stroke="none" fill="#ffffff" fill-rule="evenodd"></path></g></svg>