<svg id="svg" version="1.1" xmlns="http://www.w3.org/2000/svg" xmlns:xlink="http://www.w3.org/1999/xlink" width="400" height="400" viewBox="0, 0, 400,400"><g id="svgg"><path id="path0" d="M183.984 33.692 C 59.619 45.519,-8.595 189.076,60.720 293.104 C 131.818 399.809,291.776 388.599,348.480 272.937 C 359.991 249.457,368.913 206.241,364.967 193.072 C 361.792 182.474,345.324 179.454,337.400 188.016 C 333.958 191.736,333.456 193.546,332.751 204.811 C 329.945 249.635,309.503 286.040,273.555 310.232 C 185.624 369.407,67.717 306.069,67.628 199.609 C 67.559 116.017,142.288 54.297,225.273 69.408 C 239.832 72.059,244.196 71.421,249.325 65.892 C 257.005 57.612,256.148 46.750,247.364 41.029 C 238.379 35.178,206.799 31.523,183.984 33.692 M310.349 101.515 C 306.151 102.559,305.033 103.767,253.877 162.500 C 226.743 193.652,203.433 220.250,202.076 221.607 L 199.609 224.073 179.688 204.929 C 168.730 194.400,158.805 185.286,157.631 184.676 C 143.642 177.410,127.340 193.727,134.697 207.631 C 137.503 212.933,191.652 265.462,195.304 266.424 C 199.468 267.522,204.791 266.937,208.135 265.015 C 211.143 263.287,327.664 130.421,329.815 126.267 C 336.781 112.815,325.024 97.865,310.349 101.515 " stroke="none" fill="#ffffff" fill-rule="evenodd"></path></g></svg>