<svg id="svg" xmlns="http://www.w3.org/2000/svg" xmlns:xlink="http://www.w3.org/1999/xlink" width="400" height="400" viewBox="0, 0, 400,400"><g id="svgg"><path id="path0" d="M144.531 3.203 C 25.582 16.533,-38.742 148.561,24.239 250.109 C 71.443 326.217,174.168 349.241,249.268 300.544 L 253.516 297.790 300.391 344.448 C 339.720 383.596,348.032 391.505,352.029 393.582 C 373.569 404.778,398.726 390.792,399.865 366.987 C 400.604 351.519,402.151 353.528,346.675 297.933 L 299.007 250.162 301.890 245.417 C 318.646 217.833,326.582 178.631,322.319 144.502 C 311.378 56.909,231.535 -6.547,144.531 3.203 M173.828 56.311 C 263.456 66.992,302.345 176.089,239.326 240.054 C 180.905 299.353,81.585 274.905,57.568 195.313 C 35.234 121.298,97.224 47.182,173.828 56.311 " stroke="none" fill="#ffffff" fill-rule="evenodd"></path></g></svg>