<svg id="svg" xmlns="http://www.w3.org/2000/svg" xmlns:xlink="http://www.w3.org/1999/xlink" width="400" height="400" viewBox="0, 0, 400,400"><g id="svgg"><path id="path0" d="M170.004 1.501 C 166.148 4.043,165.175 6.716,159.304 30.906 L 153.604 54.389 147.575 56.525 C 144.259 57.700,138.353 60.215,134.450 62.114 L 127.355 65.568 107.893 53.878 C 80.380 37.351,84.258 36.734,59.126 61.630 C 33.885 86.633,34.367 82.958,52.396 112.977 L 63.443 131.371 60.708 137.365 C 59.204 140.662,57.172 145.663,56.191 148.479 L 54.409 153.600 30.915 159.306 C -3.070 167.561,0.000 163.520,0.000 200.000 C 0.000 236.480,-3.070 232.440,30.912 240.681 L 54.401 246.378 56.176 251.510 C 57.151 254.332,59.540 260.038,61.483 264.190 L 65.016 271.739 55.262 288.018 C 43.464 307.708,42.969 308.662,42.969 311.705 C 42.969 316.384,45.331 319.327,63.783 337.635 C 88.269 361.931,84.791 361.339,110.992 345.668 L 128.625 335.122 135.992 338.590 C 140.044 340.497,145.663 342.853,148.479 343.824 L 153.600 345.591 159.306 369.085 C 167.561 403.070,163.520 400.000,200.000 400.000 C 236.480 400.000,232.439 403.070,240.694 369.085 L 246.400 345.591 251.521 343.824 C 254.337 342.853,259.940 340.505,263.972 338.607 C 273.133 334.295,269.940 333.428,290.506 345.816 C 316.351 361.385,313.642 361.920,339.208 336.191 C 362.711 312.538,362.252 315.436,346.627 289.328 L 335.442 270.639 338.417 264.472 C 340.053 261.080,342.339 255.632,343.496 252.367 L 345.599 246.429 369.088 240.707 C 403.076 232.428,400.000 236.481,400.000 199.972 C 400.000 163.435,403.175 167.611,369.079 159.297 L 345.579 153.566 343.818 148.463 C 342.850 145.656,340.510 140.071,338.618 136.051 L 335.178 128.744 346.495 109.866 C 362.421 83.301,363.070 87.117,338.394 62.253 C 313.201 36.868,316.647 37.490,289.897 53.500 L 270.996 64.812 264.990 61.812 C 261.687 60.162,256.152 57.817,252.690 56.601 L 246.396 54.389 240.692 30.906 C 234.778 6.558,233.710 3.659,229.816 1.367 C 226.110 -0.814,173.337 -0.696,170.004 1.501 M208.984 119.091 C 262.584 123.161,297.191 184.666,273.785 234.259 C 246.882 291.260,169.897 297.947,133.166 246.474 C 107.540 210.562,117.147 157.697,153.810 132.868 C 167.463 123.623,189.088 117.099,201.563 118.462 C 202.637 118.579,205.977 118.862,208.984 119.091 " stroke="none" fill="#ffffff" fill-rule="evenodd"></path></g></svg>