<svg id="svg" xmlns="http://www.w3.org/2000/svg" xmlns:xlink="http://www.w3.org/1999/xlink" width="400" height="400" viewBox="0, 0, 400,400"><g id="svgg"><path id="path0" d="M173.878 1.269 C 22.854 20.611,-51.930 197.911,39.472 319.922 C 137.520 450.804,344.432 414.773,391.657 258.594 C 433.821 119.149,318.393 -17.239,173.878 1.269 M228.202 30.799 C 349.888 51.472,411.276 190.994,343.727 293.359 C 270.101 404.933,105.056 394.968,46.106 275.391 C -5.287 171.143,60.950 46.243,176.172 30.131 C 193.992 27.638,210.877 27.855,228.202 30.799 M183.362 100.405 C 162.007 104.457,146.749 117.715,145.498 133.308 C 144.192 149.580,163.464 156.505,172.603 143.047 C 186.167 123.074,219.916 126.496,219.734 147.826 C 219.662 156.247,216.035 161.301,201.865 172.728 C 184.503 186.728,179.440 196.546,179.344 216.406 C 179.272 231.250,181.430 234.375,192.178 234.992 C 205.818 235.774,208.781 233.102,209.904 219.007 C 211.073 204.343,212.901 201.169,226.869 189.540 C 252.208 168.445,260.189 144.919,249.077 124.071 C 239.461 106.029,209.876 95.375,183.362 100.405 M190.099 253.172 C 174.782 256.143,168.549 275.193,178.998 287.095 C 189.318 298.848,209.345 294.295,213.734 279.199 C 218.082 264.241,205.344 250.214,190.099 253.172 " stroke="none" fill="#ffffff" fill-rule="evenodd"></path></g></svg>