<svg id="svg" xmlns="http://www.w3.org/2000/svg" xmlns:xlink="http://www.w3.org/1999/xlink" width="400" height="400" viewBox="0, 0, 400,400"><g id="svgg"><path id="path0" d="M141.406 23.438 L 141.406 46.875 82.813 46.875 L 24.219 46.875 24.219 58.594 L 24.219 70.313 35.938 70.313 L 47.656 70.313 47.656 82.031 L 47.656 93.750 200.000 93.750 L 352.344 93.750 352.344 82.031 L 352.344 70.313 364.063 70.313 L 375.781 70.313 375.781 58.594 L 375.781 46.875 317.188 46.875 L 258.594 46.875 258.594 23.438 L 258.594 0.000 200.000 0.000 L 141.406 0.000 141.406 23.438 M235.156 35.156 L 235.156 46.875 200.000 46.875 L 164.844 46.875 164.844 35.156 L 164.844 23.438 200.000 23.438 L 235.156 23.438 235.156 35.156 M71.094 258.594 L 71.094 400.000 200.000 400.000 L 328.906 400.000 328.906 258.594 L 328.906 117.188 200.000 117.188 L 71.094 117.188 71.094 258.594 M153.125 258.594 L 153.125 317.969 141.406 317.969 L 129.688 317.969 129.688 258.594 L 129.688 199.219 141.406 199.219 L 153.125 199.219 153.125 258.594 M211.719 258.594 L 211.719 317.969 200.000 317.969 L 188.281 317.969 188.281 258.594 L 188.281 199.219 200.000 199.219 L 211.719 199.219 211.719 258.594 M270.313 258.594 L 270.313 317.969 258.594 317.969 L 246.875 317.969 246.875 258.594 L 246.875 199.219 258.594 199.219 L 270.313 199.219 270.313 258.594 " stroke="none" fill="#000000" fill-rule="evenodd"></path></g></svg>