<svg id="svg" xmlns="http://www.w3.org/2000/svg" xmlns:xlink="http://www.w3.org/1999/xlink" width="400" height="400" viewBox="0, 0, 400,400"><g id="svgg"><path id="path0" d="M194.243 1.758 C 189.977 5.628,150.000 71.213,150.000 74.341 C 150.000 82.415,152.479 83.594,169.456 83.594 L 182.813 83.594 182.813 173.063 L 182.813 262.532 178.711 260.168 C 176.455 258.869,169.010 254.731,162.166 250.973 C 143.422 240.682,142.188 238.939,142.188 222.777 L 142.188 213.313 145.508 211.622 C 169.206 199.556,173.973 164.760,154.585 145.372 C 126.455 117.242,78.283 140.710,83.509 179.998 C 85.230 192.930,94.132 206.347,104.492 211.622 L 107.812 213.313 107.840 223.258 C 107.886 239.957,110.361 249.503,117.154 259.176 C 123.817 268.663,126.340 270.396,163.477 290.980 L 182.813 301.697 182.813 310.811 L 182.813 319.925 179.444 321.712 C 141.887 341.635,157.212 400.000,200.000 400.000 C 242.788 400.000,258.113 341.635,220.556 321.712 L 217.188 319.925 217.218 285.548 L 217.249 251.172 246.586 233.594 C 262.722 223.926,278.125 214.373,280.816 212.365 C 292.613 203.563,300.000 188.700,300.000 173.767 L 300.000 167.393 305.664 167.029 C 317.022 166.299,316.747 167.093,317.030 134.182 C 317.355 96.285,321.084 100.000,282.716 100.000 L 254.567 100.000 252.284 102.284 L 250.000 104.567 250.000 133.038 C 250.000 167.488,249.880 167.168,262.808 167.183 L 266.632 167.187 266.160 172.244 C 265.634 177.880,264.469 180.630,261.244 183.855 C 259.672 185.427,225.855 206.319,217.773 210.711 C 217.451 210.886,217.188 182.357,217.188 147.312 L 217.188 83.594 230.544 83.594 C 247.521 83.594,250.000 82.415,250.000 74.341 C 250.000 71.213,210.023 5.628,205.757 1.758 C 203.037 -0.709,196.963 -0.709,194.243 1.758 " stroke="none" fill="#ffffff" fill-rule="evenodd"></path></g></svg>