<svg id="svg" xmlns="http://www.w3.org/2000/svg" xmlns:xlink="http://www.w3.org/1999/xlink" width="400" height="400" viewBox="0, 0, 400,400"><g id="svgg"><path id="path0" d="M181.326 1.259 C 99.404 14.988,65.693 117.723,123.260 178.215 C 189.026 247.324,305.462 200.836,305.462 105.469 C 305.462 39.345,246.986 -9.744,181.326 1.259 M154.297 235.591 C 87.099 246.233,34.781 299.326,25.431 366.364 C 22.732 385.713,23.864 394.862,29.407 398.517 C 32.908 400.825,367.092 400.825,370.593 398.517 C 376.120 394.873,377.311 385.285,374.569 366.507 C 364.990 300.917,317.603 250.729,251.893 236.578 C 241.739 234.391,166.666 233.632,154.297 235.591 " stroke="none" fill="#ffffff" fill-rule="evenodd"></path></g></svg>