<svg id="svg" xmlns="http://www.w3.org/2000/svg" xmlns:xlink="http://www.w3.org/1999/xlink" width="400" height="400" viewBox="0, 0, 400,400"><g id="svgg"><path id="path0" d="M15.389 1.128 C 5.647 4.603,0.096 12.814,0.042 23.828 C -0.010 34.503,-5.093 28.812,84.991 118.944 L 166.002 199.996 84.683 281.444 C -7.033 373.303,-0.485 365.846,0.166 377.697 C 0.897 391.003,8.997 399.103,22.303 399.834 C 34.154 400.485,26.697 407.032,118.555 315.319 L 200.000 234.002 281.445 315.319 C 373.303 407.032,365.846 400.485,377.697 399.834 C 391.003 399.103,399.103 391.003,399.834 377.697 C 400.485 365.846,407.032 373.303,315.319 281.445 L 234.002 200.000 315.319 118.555 C 407.032 26.697,400.485 34.154,399.834 22.303 C 399.103 8.997,391.003 0.897,377.697 0.166 C 365.846 -0.485,373.303 -7.033,281.444 84.683 L 199.996 166.002 118.944 84.991 C 28.812 -5.093,34.503 -0.010,23.828 0.042 C 20.820 0.057,17.023 0.545,15.389 1.128 " stroke="none" fill="#ff6b6b" fill-rule="evenodd"></path></g></svg>