<svg id="svg" xmlns="http://www.w3.org/2000/svg" xmlns:xlink="http://www.w3.org/1999/xlink" width="400" height="400" viewBox="0, 0, 400,400"><g id="svgg"><path id="path0" d="M175.000 1.183 C 10.270 21.534,-58.998 223.923,58.539 341.461 C 176.367 459.289,378.987 389.487,398.870 224.219 C 414.431 94.879,304.345 -14.797,175.000 1.183 M135.156 110.213 C 137.785 111.398,146.410 119.522,169.331 142.404 L 199.991 173.011 231.050 142.078 C 265.761 107.507,265.088 108.023,274.546 108.782 C 283.874 109.531,290.469 116.126,291.218 125.454 C 291.977 134.912,292.492 134.239,257.927 168.945 L 226.998 200.000 257.927 231.055 C 292.492 265.761,291.977 265.088,291.218 274.546 C 290.469 283.874,283.874 290.469,274.546 291.218 C 265.088 291.977,265.761 292.492,231.055 257.927 L 200.000 226.998 168.945 257.927 C 134.239 292.492,134.912 291.977,125.454 291.218 C 116.126 290.469,109.531 283.874,108.782 274.546 C 108.023 265.088,107.508 265.761,142.073 231.055 L 173.002 200.000 142.073 168.945 C 107.508 134.239,108.023 134.912,108.782 125.454 C 109.257 119.538,111.911 114.955,116.805 111.599 C 121.823 108.158,129.338 107.590,135.156 110.213 " stroke="none" fill="#ff6b6b" fill-rule="evenodd"></path></g></svg>